HIERARCHY
ROOT Hips
{
	OFFSET 0.000000 0.000000 0.000000
	CHANNELS 6 Xposition Yposition Zposition Zrotation Yrotation Xrotation 
	JOINT LHipJoint
	{
		OFFSET 0.000000 0.000000 0.000000
		CHANNELS 3 Zrotation Yrotation Xrotation
		JOINT LeftUpLeg
		{
			OFFSET 1.363060 -1.794630 0.839290
			CHANNELS 3 Zrotation Yrotation Xrotation
			JOINT LeftLeg
			{
				OFFSET 2.448110 -6.726130 0.000000
				CHANNELS 3 Zrotation Yrotation Xrotation
				JOINT LeftFoot
				{
					OFFSET 2.562200 -7.039590 0.000000
					CHANNELS 3 Zrotation Yrotation Xrotation
					JOINT LeftToeBase
					{
						OFFSET 0.157640 -0.433110 2.322550
						CHANNELS 3 Zrotation Yrotation Xrotation
						End Site
						{
							OFFSET 0.000000 0.000000 0.000000
						}
					}
				}
			}
		}
	}
	JOINT RHipJoint
	{
		OFFSET 0.000000 0.000000 0.000000
		CHANNELS 3 Zrotation Yrotation Xrotation
		JOINT RightUpLeg
		{
			OFFSET -1.305520 -1.794630 0.839290
			CHANNELS 3 Zrotation Yrotation Xrotation
			JOINT RightLeg
			{
				OFFSET -2.542530 -6.985550 0.000000
				CHANNELS 3 Zrotation Yrotation Xrotation
				JOINT RightFoot
				{
					OFFSET -2.568260 -7.056230 0.000000
					CHANNELS 3 Zrotation Yrotation Xrotation
					JOINT RightToeBase
					{
						OFFSET -0.164730 -0.452590 2.363150
						CHANNELS 3 Zrotation Yrotation Xrotation
						End Site
						{
							OFFSET 0.000000 0.000000 0.000000
						}
					}
				}
			}
		}
	}
	JOINT LowerBack
	{
		OFFSET 0.000000 0.000000 0.000000
		CHANNELS 3 Zrotation Yrotation Xrotation
		JOINT Spine
		{
			OFFSET 0.028270 2.035590 -0.193380
			CHANNELS 3 Zrotation Yrotation Xrotation
			JOINT Spine1
			{
				OFFSET 0.056720 2.048850 -0.042750
				CHANNELS 3 Zrotation Yrotation Xrotation
				JOINT Neck
				{
					OFFSET 0.000000 0.000000 0.000000
					CHANNELS 3 Zrotation Yrotation Xrotation
					JOINT Neck1
					{
						OFFSET -0.054170 1.746240 0.172020
						CHANNELS 3 Zrotation Yrotation Xrotation
						JOINT Head
						{
							OFFSET 0.104070 1.761360 -0.123970
							CHANNELS 3 Zrotation Yrotation Xrotation
							End Site
							{
								OFFSET 0.000000 0.000000 0.000000
							}
						}
					}
				}
				JOINT LeftShoulder
				{
					OFFSET 0.000000 0.000000 0.000000
					CHANNELS 3 Zrotation Yrotation Xrotation
					JOINT LeftArm
					{
						OFFSET 3.362410 1.200890 -0.311210
						CHANNELS 3 Zrotation Yrotation Xrotation
						JOINT LeftForeArm
						{
							OFFSET 4.983000 -0.000000 -0.000000
							CHANNELS 3 Zrotation Yrotation Xrotation
							JOINT LeftHand
							{
								OFFSET 3.483560 -0.000000 -0.000000
								CHANNELS 3 Zrotation Yrotation Xrotation
								JOINT LeftFingerBase
								{
									OFFSET 0.000000 0.000000 0.000000
									CHANNELS 3 Zrotation Yrotation Xrotation
									JOINT LeftHandIndex1
									{
										OFFSET 0.715260 -0.000000 -0.000000
										CHANNELS 3 Zrotation Yrotation Xrotation
										End Site
										{
											OFFSET 0.000000 0.000000 0.000000
										}
									}
								}
								JOINT LThumb
								{
									OFFSET 0.000000 0.000000 0.000000
									CHANNELS 3 Zrotation Yrotation Xrotation
									End Site
									{
										OFFSET 0.000000 0.000000 0.000000
									}
								}
							}
						}
					}
				}
				JOINT RightShoulder
				{
					OFFSET 0.000000 0.000000 0.000000
					CHANNELS 3 Zrotation Yrotation Xrotation
					JOINT RightArm
					{
						OFFSET -3.136600 1.374050 -0.404650
						CHANNELS 3 Zrotation Yrotation Xrotation
						JOINT RightForeArm
						{
							OFFSET -5.241900 -0.000000 -0.000000
							CHANNELS 3 Zrotation Yrotation Xrotation
							JOINT RightHand
							{
								OFFSET -3.444170 -0.000000 -0.000000
								CHANNELS 3 Zrotation Yrotation Xrotation
								JOINT RightFingerBase
								{
									OFFSET 0.000000 0.000000 0.000000
									CHANNELS 3 Zrotation Yrotation Xrotation
									JOINT RightHandIndex1
									{
										OFFSET -0.622530 -0.000000 -0.000000
										CHANNELS 3 Zrotation Yrotation Xrotation
										End Site
										{
											OFFSET 0.000000 0.000000 0.000000
										}
									}
								}
								JOINT RThumb
								{
									OFFSET 0.000000 0.000000 0.000000
									CHANNELS 3 Zrotation Yrotation Xrotation
									End Site
									{
										OFFSET 0.000000 0.000000 0.000000
									}
								}
							}
						}
					}
				}
			}
		}
	}
}
MOTION
Frames: 12
Frame Time: 0.008333
-2.469512 20.869305 9.277292 -5.527706 13.340770 0.508110 -4.260618 -2.566204 -0.200812 -8.730175 -3.826868 -9.209839 1.995182 10.704134 28.860388 2.046657 -17.969016 -17.941865 0.238700 -3.144300 -8.680800 3.337683 2.514984 -1.022552 23.035922 -3.177496 -12.099301 -2.103559 -10.976242 29.282729 -0.718379 2.033970 -10.088255 -0.045300 -1.373200 3.776300 3.959172 0.872353 6.387666 2.157645 1.486663 -2.245775 3.180271 0.796017 0.958256 -7.245601 2.105456 -12.394871 0.477454 5.122556 26.730730 1.535300 0.841700 16.270300 0.154047 -1.468283 0.477203 -89.077730 4.965518 19.764531 15.017322 -25.854306 -3.445515 0.177964 0.713417 2.240317 15.145474 22.174686 5.594000 -7.125000 0.000000 0.000000 -13.902500 51.580900 -2.290300 2.095542 0.783944 -0.407053 82.725227 2.202119 22.934567 -15.232981 23.822874 -3.504125 0.229201 -0.116151 -9.011796 -19.191002 10.847510 -3.841600 7.125000 0.000000 0.000000 5.415300 -18.372700 3.447800 
-2.484499 20.865383 9.284634 -5.574377 13.834149 0.416879 -4.250282 -2.569265 -0.215335 -8.620623 -3.833156 -9.254936 2.013890 10.719668 28.916090 2.017410 -18.276708 -17.727582 0.219900 -3.018900 -8.331300 3.338073 2.513577 -1.035086 23.180652 -2.966239 -11.878109 -2.087900 -10.970224 29.241738 -0.640184 1.314570 -10.362078 -0.044200 -1.356600 3.730600 4.102276 0.962929 6.569682 2.157089 1.623187 -2.143225 3.130736 0.863699 1.156639 -7.392448 2.029915 -12.812898 0.646230 5.093049 26.848310 1.670700 0.810600 16.466100 0.156297 -1.456933 0.475285 -89.099777 4.471979 19.543584 14.743015 -25.482178 -3.335753 0.191795 0.691671 2.838191 15.190847 21.230962 5.379200 -7.125000 0.000000 0.000000 -13.493000 50.673600 -1.916600 2.093451 0.792680 -0.397313 82.653744 2.451593 23.257059 -15.239683 23.830842 -3.506670 0.231032 -0.118689 -9.218445 -19.281843 10.961047 -3.901700 7.125000 0.000000 0.000000 5.352600 -18.242500 3.423000 
-2.500289 20.865483 9.289261 -5.889589 14.490528 0.344179 -4.232204 -2.568828 -0.239105 -8.177032 -4.038671 -9.361831 2.051888 10.743801 29.025623 1.959131 -18.812239 -17.272864 0.200100 -2.880400 -7.945900 3.334460 2.505271 -1.043277 23.616965 -2.744500 -11.646558 -2.052554 -10.930597 29.090993 -0.556688 0.564786 -10.668763 -0.073000 -1.742900 4.795600 4.536228 1.000525 6.669300 2.183561 1.696497 -2.052013 2.979161 0.906358 1.379671 -7.463006 1.943739 -13.269980 0.706783 5.042116 26.926901 1.731400 0.772700 16.652400 0.160953 -1.447684 0.474105 -89.028550 3.915394 19.625515 14.530097 -25.189672 -3.252464 0.214689 0.670750 2.883203 15.857485 20.259122 5.370900 -7.125000 0.000000 0.000000 -12.518100 49.828600 -1.511100 2.098760 0.796490 -0.388559 82.653747 2.734957 23.699864 -15.166124 23.732446 -3.476243 0.238573 -0.131793 -9.750236 -19.655454 11.520405 -4.186100 7.125000 0.000000 0.000000 5.099000 -17.606700 3.331100 
-2.512560 20.876144 9.297609 -5.871950 15.277077 0.459554 -4.230119 -2.579152 -0.275131 -8.092876 -4.407799 -9.574758 2.098437 10.793339 29.219866 1.896833 -19.284084 -16.857773 0.183600 -2.759700 -7.610500 3.334412 2.509874 -1.030676 23.617893 -3.196093 -11.887917 -2.013695 -10.856269 28.861381 -0.546606 0.494728 -10.651986 -0.121200 -2.244100 6.180800 4.652521 1.005854 6.707631 2.182130 1.710439 -2.049395 2.911050 0.916880 1.386932 -7.501214 1.954550 -13.393702 0.576881 5.118490 26.889186 1.679200 0.786900 16.664800 0.163837 -1.456948 0.476097 -89.075933 3.911188 19.912008 14.707349 -25.416484 -3.314629 0.188242 0.682732 2.459120 15.085668 20.750870 5.223000 -7.125000 0.000000 0.000000 -13.414000 50.191200 -1.743900 2.103506 0.791112 -0.390494 82.593377 2.692324 24.176339 -15.189269 23.766345 -3.487148 0.244699 -0.142656 -10.266855 -20.016891 12.095165 -4.480100 7.125000 0.000000 0.000000 4.860000 -16.955100 3.243200 
-2.529256 20.882984 9.299620 -6.204488 15.957836 0.590053 -4.224017 -2.589157 -0.305512 -7.625067 -4.593895 -10.032015 2.147851 10.829512 29.393990 1.886694 -19.647032 -16.709656 0.200400 -2.882700 -7.952500 3.331811 2.505628 -1.018976 24.066350 -3.399396 -12.255956 -1.979133 -10.791006 28.669119 -0.510446 0.165206 -10.820866 -0.127100 -2.298400 6.331000 5.144655 1.105179 6.705020 2.211431 1.864092 -2.097092 2.722511 1.004288 1.283530 -7.386164 2.005792 -13.370285 0.379259 5.214601 26.901123 1.560000 0.826700 16.675100 0.172936 -1.472795 0.476674 -89.106279 4.122351 20.215825 14.971944 -25.761077 -3.416712 0.178526 0.698234 2.141336 15.038129 21.457393 5.379000 -7.125000 0.000000 0.000000 -13.723000 50.869700 -2.017300 2.114543 0.783249 -0.402388 82.610774 2.423307 24.201072 -15.361669 24.000589 -3.560871 0.243561 -0.138789 -10.018173 -20.111847 11.932382 -4.442600 7.125000 0.000000 0.000000 4.788900 -17.123800 3.177800 
-2.554200 20.881777 9.297206 -6.706756 16.640065 0.588801 -4.211919 -2.590684 -0.325747 -6.939518 -4.706573 -10.431963 2.183184 10.835519 29.470027 1.885868 -20.010809 -16.589637 0.246500 -3.194900 -8.821700 3.324722 2.492987 -1.017945 24.753586 -3.192959 -12.408644 -1.955432 -10.759017 28.571549 -0.414077 -0.628856 -11.099798 -0.087600 -1.909000 5.254300 5.695483 1.201146 6.793836 2.271953 2.025299 -2.127822 2.566513 1.095167 1.162610 -7.097361 2.108280 -13.262555 0.123379 5.337167 26.910913 1.370700 0.902800 16.661800 0.191945 -1.489410 0.479660 -89.075155 4.202567 20.676948 15.082416 -25.915328 -3.467190 0.209346 0.702180 1.392187 16.673148 21.391505 5.963900 -7.125000 0.000000 0.000000 -12.153700 51.062300 -1.838300 2.134023 0.772806 -0.412390 82.727681 2.157480 24.199170 -15.578824 24.283336 -3.651644 0.244762 -0.127580 -9.665129 -20.247196 11.411360 -4.282000 7.125000 0.000000 0.000000 4.677200 -17.675400 3.046500 
-2.573712 20.886303 9.305052 -6.362054 17.417229 0.547778 -4.220749 -2.595390 -0.341183 -7.200480 -4.914944 -10.415040 2.194073 10.855744 29.526922 1.859059 -20.284198 -16.493987 0.318200 -3.625900 -10.026400 3.326435 2.498899 -1.013937 24.474577 -3.408900 -12.281269 -1.944501 -10.753308 28.538896 -0.304921 -1.364731 -11.023001 -0.032800 -1.169300 3.214800 5.339675 1.195167 7.071800 2.256601 2.024704 -2.115647 2.704880 1.089434 1.024991 -7.082988 2.252100 -13.088354 0.007184 5.563302 26.809286 1.318500 1.000000 16.537500 0.196398 -1.503434 0.486418 -89.158110 4.254630 21.119418 15.204291 -26.088851 -3.520227 0.221619 0.710989 0.206461 17.755098 21.354775 6.354600 -7.125000 0.000000 0.000000 -11.111100 51.195600 -1.713700 2.137205 0.766789 -0.412448 82.734911 1.958478 24.375346 -15.703010 24.443524 -3.704604 0.241727 -0.129444 -9.547091 -20.284154 11.579936 -4.351400 7.125000 0.000000 0.000000 4.657800 -17.493300 3.052500 
-2.588095 20.898674 9.318328 -5.934837 18.232022 0.649491 -4.238147 -2.603782 -0.362084 -7.546972 -5.178733 -10.451647 2.198463 10.869595 29.561754 1.851885 -20.496955 -16.530528 0.435400 -4.234300 -11.736800 3.331446 2.512735 -1.001725 24.060806 -3.951610 -12.398739 -1.951468 -10.765772 28.579738 -0.319297 -1.373003 -11.320975 -0.099500 -2.033800 5.599200 4.922570 1.155564 7.177597 2.246148 1.962456 -2.125232 2.920524 1.049758 0.932222 -7.387664 2.396220 -12.966110 0.220076 5.848220 26.823161 1.524100 1.093400 16.481600 0.188853 -1.503656 0.485058 -89.412258 4.372475 20.939320 15.373662 -26.320308 -3.592238 0.233648 0.709591 -0.081836 18.382672 21.028613 6.491500 -7.125000 0.000000 0.000000 -10.397300 50.969300 -1.543400 2.129769 0.769276 -0.414286 82.566226 1.774303 24.670323 -15.754723 24.518042 -3.727865 0.237134 -0.130352 -9.513055 -20.154934 11.736838 -4.377300 7.125000 0.000000 0.000000 4.755600 -17.338900 3.133100 
-2.603282 20.901692 9.327581 -5.738480 19.111829 0.822348 -4.250111 -2.612048 -0.382039 -7.635243 -5.366484 -10.644876 2.188806 10.844102 29.490722 1.857445 -20.699485 -16.581493 0.584400 -4.894700 -13.608500 3.335884 2.522699 -0.991532 23.886375 -4.422070 -12.766774 -1.980882 -10.814731 28.749481 -0.320012 -1.480871 -11.634164 -0.132900 -2.350200 6.474500 4.798917 1.153717 7.178660 2.234499 1.956649 -2.163373 2.978164 1.043076 0.836179 -7.586761 2.481404 -12.880117 0.573129 6.009164 26.995946 1.779300 1.156800 16.549200 0.175962 -1.495550 0.477298 -89.571500 4.497873 20.745852 15.514392 -26.506234 -3.652624 0.252001 0.701083 -0.071201 19.097273 20.500825 6.592400 -7.125000 0.000000 0.000000 -9.540800 50.554800 -1.316400 2.115040 0.777921 -0.421004 82.466243 1.526492 25.165702 -15.856967 24.657006 -3.770716 0.240818 -0.120759 -9.961393 -20.167875 11.501708 -4.293500 7.125000 0.000000 0.000000 4.737400 -17.593900 3.094500 
-2.614446 20.890125 9.335225 -5.598645 20.044456 0.824333 -4.251204 -2.622296 -0.394353 -7.726752 -5.339412 -10.775918 2.188195 10.823508 29.429674 1.852369 -21.152834 -16.610876 0.711200 -5.389700 -15.023400 3.338179 2.533495 -0.982181 23.760125 -5.128915 -13.060095 -2.015494 -10.876388 28.946608 -0.322811 -1.548172 -11.867961 -0.149300 -2.490100 6.862200 4.854407 1.174484 7.323006 2.191362 1.998102 -2.171755 2.851164 1.064737 0.734331 -7.693615 2.471239 -12.742530 0.802449 5.994978 27.038325 1.934400 1.161300 16.528400 0.154895 -1.487806 0.477057 -89.500960 4.601096 21.034840 15.764402 -26.816026 -3.748964 0.246918 0.697285 -0.277432 19.046104 20.328450 6.521200 -7.125000 0.000000 0.000000 -9.532400 50.375400 -1.272900 2.094597 0.784227 -0.423785 82.502672 1.220075 25.639703 -15.999107 24.851786 -3.832134 0.241695 -0.112034 -10.784300 -20.043119 11.471753 -4.252200 7.125000 0.000000 0.000000 4.823600 -17.642100 3.146100 
-2.623499 20.875038 9.343070 -5.569790 21.035702 0.872755 -4.250677 -2.639305 -0.415310 -7.692360 -5.221563 -11.101810 2.206135 10.811311 29.403970 1.878576 -21.907739 -16.867250 0.818700 -5.773600 -16.128900 3.342845 2.542810 -0.974982 23.737928 -5.753713 -13.424172 -2.043817 -10.930769 29.122262 -0.295485 -1.876410 -12.254039 -0.052800 -1.482200 4.076800 5.077746 1.212290 7.327781 2.141457 2.057660 -2.168502 2.613483 1.100978 0.731144 -7.709413 2.419308 -12.590571 0.870490 5.898638 26.951010 1.974200 1.140800 16.419800 0.134322 -1.476520 0.482366 -89.324943 4.619353 21.486235 16.107322 -27.236200 -3.879078 0.220905 0.697507 -0.498451 18.204013 20.505653 6.273200 -7.125000 0.000000 0.000000 -10.386300 50.424000 -1.401600 2.078351 0.782411 -0.423087 82.635272 1.022369 25.638959 -16.042204 24.923572 -3.853585 0.237057 -0.111263 -10.763352 -19.873375 11.520939 -4.229600 7.125000 0.000000 0.000000 4.946600 -17.606500 3.230800 
-2.636775 20.868098 9.350815 -5.690466 22.123992 1.002364 -4.245601 -2.659058 -0.447193 -7.469323 -5.130768 -11.595207 2.229179 10.799967 29.405124 1.873213 -22.547465 -16.877800 0.939500 -6.173800 -17.289500 3.345794 2.547572 -0.973415 23.910258 -6.056915 -13.838982 -2.069336 -10.985812 29.306455 -0.223500 -2.582239 -12.872244 -0.000100 -0.046100 0.126800 5.412445 1.228931 7.189365 2.124745 2.082588 -2.154909 2.386436 1.122827 0.853602 -7.611792 2.402778 -12.682972 0.839139 5.871527 26.912658 1.944600 1.148200 16.417800 0.128169 -1.466769 0.485791 -89.183155 4.436768 21.907897 16.339505 -27.519878 -3.968135 0.204234 0.696037 -1.007510 17.770025 20.460757 6.104600 -7.125000 0.000000 0.000000 -10.781900 50.313800 -1.426600 2.076610 0.776168 -0.421871 82.708288 0.999283 25.591290 -16.039032 24.931024 -3.855279 0.235995 -0.117661 -10.145356 -20.048097 11.610643 -4.303000 7.125000 0.000000 0.000000 4.827100 -17.492800 3.164200 
